<?xml version="1.0" standalone="no"?>
<!DOCTYPE svg PUBLIC "-//W3C//DTD SVG 20010904//EN"
 "http://www.w3.org/TR/2001/REC-SVG-20010904/DTD/svg10.dtd">
<svg version="1.0" xmlns="http://www.w3.org/2000/svg"
 width="162.000000pt" height="162.000000pt" viewBox="0 0 162.000000 162.000000"
 preserveAspectRatio="xMidYMid meet">
<metadata>
Created by potrace 1.11, written by Peter Selinger 2001-2013
</metadata>
<g transform="translate(0.000000,162.000000) scale(0.100000,-0.100000)"
fill="#000000" stroke="none">
<path d="M22 1200 c-22 -21 -22 -23 -22 -394 0 -361 1 -373 20 -394 21 -22 22
-22 426 -22 224 0 404 4 402 9 -1 4 -113 191 -247 415 l-244 406 -156 0 c-144
0 -159 -2 -179 -20z"/>
<path d="M772 1211 c2 -4 113 -191 247 -415 l244 -406 157 0 c222 0 201 -45
198 423 -3 363 -4 377 -23 391 -17 13 -79 15 -423 16 -222 0 -402 -4 -400 -9z"/>
</g>
</svg>
