<?xml version="1.0" encoding="UTF-8" standalone="no"?>
<svg width="162px" height="83px" viewBox="0 0 162 83" version="1.1" xmlns="http://www.w3.org/2000/svg" xmlns:xlink="http://www.w3.org/1999/xlink">
    <!-- Generator: Sketch 39.1 (31720) - http://www.bohemiancoding.com/sketch -->
    <title>Page 1</title>
    <desc>Created with Sketch.</desc>
    <defs>
        <polygon id="path-1" points="43.25565 83 86 83 86 0 43.25565 0 0.5113 0 0.5113 83"></polygon>
        <polygon id="path-3" points="42.74445 83 0 83 0 0 42.74445 0 85.4889 0 85.4889 83"></polygon>
    </defs>
    <g id="Page-1" stroke="none" stroke-width="1" fill="none" fill-rule="evenodd">
        <g id="Icons" transform="translate(-428.000000, -180.000000)">
            <g id="Page-1" transform="translate(428.000000, 180.000000)">
                <g id="Group-3" transform="translate(76.000000, 0.000000)">
                    <mask id="mask-2" fill="white">
                        <use xlink:href="#path-1"></use>
                    </mask>
                    <g id="Clip-2"></g>
                    <path d="M79.3383,0 L0.5113,0 L50.3673,83 L79.3383,83 C83.0173,83 86.0003,80.017 86.0003,76.338 L86.0003,6.662 C86.0003,2.983 83.0173,0 79.3383,0" id="Fill-1" fill="#CA6AFF" mask="url(#mask-2)"></path>
                </g>
                <g id="Group-6">
                    <mask id="mask-4" fill="white">
                        <use xlink:href="#path-3"></use>
                    </mask>
                    <g id="Clip-5"></g>
                    <path d="M35.6329,0 L6.6619,0 C2.9829,0 -0.0001,2.983 -0.0001,6.662 L-0.0001,76.338 C-0.0001,80.017 2.9829,83 6.6619,83 L85.4889,83 L35.6329,0 Z" id="Fill-4" fill="#CA6AFF" mask="url(#mask-4)"></path>
                </g>
            </g>
        </g>
    </g>
</svg>